<?xml version="1.0" encoding="utf-8"?>
<!-- Generator: Adobe Illustrator 16.0.0, SVG Export Plug-In . SVG Version: 6.00 Build 0)  -->
<!DOCTYPE svg PUBLIC "-//W3C//DTD SVG 1.1//EN" "http://www.w3.org/Graphics/SVG/1.1/DTD/svg11.dtd">
<svg version="1.1" id="Layer_1" xmlns="http://www.w3.org/2000/svg" xmlns:xlink="http://www.w3.org/1999/xlink" x="0px" y="0px"
	 width="60px" height="60px" viewBox="0 0 60 60" enable-background="new 0 0 60 60" xml:space="preserve">
<g>
	<path fill="#CCCCCC" d="M30,60C13.459,60,0,46.541,0,29.999C0,13.458,13.459,0,30,0c16.542,0,30,13.458,30,29.999
		C60,46.541,46.542,60,30,60z M30,3.307c-14.718,0-26.692,11.974-26.692,26.692c0,14.719,11.975,26.693,26.692,26.693
		c14.72,0,26.693-11.975,26.693-26.693C56.693,15.281,44.72,3.307,30,3.307z"/>
	<ellipse fill="#CCCCCC" cx="22.077" cy="23.688" rx="2.394" ry="3.607"/>
	<ellipse fill="#CCCCCC" cx="38.133" cy="23.688" rx="2.394" ry="3.607"/>
	<path fill="#CCCCCC" d="M23.76,46.284c-0.699,0-1.352-0.442-1.582-1.144c-0.289-0.875,0.187-1.817,1.061-2.104l13.472-4.444
		c0.868-0.289,1.815,0.186,2.104,1.06s-0.186,1.816-1.06,2.104L24.282,46.2C24.109,46.259,23.934,46.284,23.76,46.284z"/>
</g>
</svg>
