<?xml version="1.0" encoding="utf-8"?>
<!-- Generator: Adobe Illustrator 16.0.0, SVG Export Plug-In . SVG Version: 6.00 Build 0)  -->
<!DOCTYPE svg PUBLIC "-//W3C//DTD SVG 1.1//EN" "http://www.w3.org/Graphics/SVG/1.1/DTD/svg11.dtd">
<svg version="1.1" id="Layer_1" xmlns="http://www.w3.org/2000/svg" xmlns:xlink="http://www.w3.org/1999/xlink" x="0px" y="0px"
	 width="60px" height="60px" viewBox="0 0 60 60" enable-background="new 0 0 60 60" xml:space="preserve">
<g>
	<path fill="#CCCCCC" d="M30,60C13.458,60,0,46.541,0,29.999C0,13.458,13.458,0,30,0c16.541,0,30,13.458,30,29.999
		C60,46.541,46.541,60,30,60z M30,3.307c-14.72,0-26.693,11.973-26.693,26.692S15.281,56.692,30,56.692
		c14.717,0,26.692-11.975,26.692-26.693S44.718,3.307,30,3.307z"/>
	<ellipse fill="#CCCCCC" cx="21.938" cy="23.688" rx="2.394" ry="3.607"/>
	<path fill="#CCCCCC" d="M40.386,23.688c0,1.992-1.072,3.607-2.391,3.607c-1.322,0-2.395-1.615-2.395-3.607
		c0-1.995,1.072-3.61,2.395-3.61C39.313,20.078,40.386,21.693,40.386,23.688z"/>
	<path fill="#CCCCCC" d="M30.149,45.48c-8.625,0-11.911-6.196-12.046-6.46c-0.421-0.818-0.099-1.823,0.72-2.245
		c0.818-0.421,1.824-0.098,2.245,0.721c0.096,0.18,2.553,4.65,9.082,4.65c6.525,0,8.968-4.467,9.067-4.658
		c0.431-0.809,1.437-1.124,2.245-0.703c0.814,0.423,1.136,1.417,0.719,2.231C42.046,39.28,38.775,45.48,30.149,45.48z"/>
</g>
</svg>
