<?xml version="1.0" encoding="utf-8"?>
<!-- Generator: Adobe Illustrator 16.0.0, SVG Export Plug-In . SVG Version: 6.00 Build 0)  -->
<!DOCTYPE svg PUBLIC "-//W3C//DTD SVG 1.1//EN" "http://www.w3.org/Graphics/SVG/1.1/DTD/svg11.dtd">
<svg version="1.1" id="Layer_1" xmlns="http://www.w3.org/2000/svg" xmlns:xlink="http://www.w3.org/1999/xlink" x="0px" y="0px"
	 width="180px" height="380px" viewBox="0 0 180 380" enable-background="new 0 0 180 380" xml:space="preserve">
<polygon id="touch-right-arm" fill="none" points="68,64 28,64 28,119 22,119 22,159 2,159 2,199 62,199 62,168 62,159 62,128 
	68,128 "/>
<rect x="62" y="167" fill="none" width="76" height="39"/>
<polygon id="touch-left-arm" fill="none" points="178,163 178,115 160,115 160,64 118,64 118,123 138,123 138,163 138,165 138,203 
	180,203 180,163 "/>
<polygon id="touch-left-leg" fill="none" points="148,336 148,255 140,255 140,204 100,204 100,257 108,257 108,336 108,338 
	108,376 155,376 155,336 "/>
<polygon id="touch-right-leg" fill="none" points="102,255 102,203 62,203 62,257 68,257 68,336 43,336 43,376 108,376 108,338 
	108,336 108,255 "/>
<polygon id="touch-head" fill="none" points="128,3 71,3 71,49 68,49 68,89 118,89 118,64 128,64 "/>
<polyline id="touch-abdomen" fill="none" points="63,123 62,123 62,167 138,167 138,123 124,123 "/>
<polyline id="touch-chest" fill="none" points="124,123 124,64 118,64 118,89 68,89 68,64 63,64 63,123 "/>
<g id="body" display="none">
	<path display="inline" fill="#FAFAFA" stroke="#D9D9D9" stroke-linejoin="round" stroke-miterlimit="10" d="M110.322,58.942
		c0.967-1.495,2.475-2.911,3.287-3.942c6.469-8.219,6.261-21.638,0.385-33.233c-3.924-7.743-12.24-10.771-21.643-8.521
		c-6.901,1.648-11.021,7.979-11.917,16.313C79.574,37.6,78.869,45.364,86.609,51c0.195,0.129,0.39,0.363,0.561,0.52l0,0
		c3.637,3.262,1.818,11.636-2.555,14.526c-0.756,0.5-1.78,1.18-2.66,1.29l-5.459,1.013l-5.512,1.35
		c-2.782,0.31-7.127,1.849-7.127,1.849c-3,1.639-4.895,4.297-6.614,8.256c-5.255,12.1-9.19,24.284-11.969,37.199
		c-0.231,1.082-0.279,2.736-0.582,3.736l0.05,0.018c-0.351,1.139-0.845,2.211-1.711,3.129c-7.916,8.388-12.556,18.561-16.591,29.193
		c-0.911,2.401-1.452,4.793-2.592,7.076c-0.084,0.16-0.168,0.32-0.252,0.479c-2.223,4.177-4.913,8.107-8.245,11.698
		c-5.224,5.628-4.668,14.869,0.52,20.77c2.613,2.973,4.633,3.593,8.189,0.205c6.012-5.725,7.869-13.485,9.361-20.47
		c0.451-2.108,1.042-4.065,1.76-5.915c1.692-3.729,3.719-7.927,6.366-11.197c2.819-3.483,5.708-6.912,8.566-10.362l9.771-14.627
		l0.838-3.276l0.116,0.048l5.888-23.507l0.011,0.208c0.633,5.361,3.61,15.329,3.61,15.329l0.664,7.794l0.057,1.67l1.666,18.437
		C71.637,154.627,70.839,159,70.142,167l-0.17,2c-0.937,9.662-1.371,18.42-1,28.083l-0.257-0.063l0.257,0.063
		c0.013,0.338,0.019,0.668,0.034,1.008l0.041,0.012c0.005,0.128,0.009,0.255,0.016,0.383c1.012,19.416,3.399,38.513,7.479,57.516
		c2.465,11.479-1.288,23.271,0.687,34.829c1.764,10.322,1.683,22.1,1.662,32.64c-0.018,8.4-3.473,15.53-3.015,15.53
		c-2.812,6-7.668,10.643-14.296,14.444c-4.152,2.383-8.156,4.287-12.227,6.815c-1.447,0.896-3.045,1.854-2.533,3.896
		c0.539,2.162,2.373,3.174,4.369,3.133c6.221-0.126,12.572,0.313,18.613-0.863c5.218-1.021,10.325-1.828,15.625-1.584
		c4.832,0.223,7.721-1.83,7.155-6.439c-0.813-6.633-0.917-13.399-0.523-19.399c1.028-17,5.45-34.102,9.449-50.585
		c2.641-10.886-1.833-22.15-3.351-32.416c-0.218-1.466-0.373-2.812-0.44-4.297c-0.479-10.653,0.934-16.605,3.283-27.099
		c5,11.872,9.746,31.396,9.746,31.396c1.277,6,2.675,14.405,3.078,21.296c0.678,11.563-0.916,16.188,3.342,26.99
		c3.887,9.863,5.793,21.02,7.648,31.419c0.041,0.236,0.162,0.287,0.184,1.615c-0.143,4.336-2.098,8.358-2.639,12.63
		c-0.711,5.606,0.361,10.146,5.75,12.646c4.166,1.933,14.687-1.443,17.014-5.094c1.561-2.45,2.043-5.188,0.299-7.455
		c-3.162-4.11-5.288-7.56-6.744-12.05c-3.775-12-3.039-24.459-4.238-36.674c-1.26-12.851,6.148-19.726,2.506-32.202
		c-1.129-3.869-2.198-10.124-2.779-13.124c-1.796-13-1.618-23.063-1.575-35.164c0.026-7.42,0.343-16.006-0.79-23.28
		c0,0-1.078-4.146-1.609-6.496c-1.73-7.657-3.389-15.884-1.939-24.061c1.025-5.798-0.604-11.459-4.253-16.663
		c-4.558-6.499-6.415-14.213-11.138-20.675c-0.528-0.723-0.735-1.953-0.855-2.662c0,0,0.432-3.503,1.4-5.625
		c2.871-6.274,6.852-15.649,8.629-23.208c5,7.186,12.583,14.989,16.809,23.408c0,0,2.313,1.979,2.885,4.021
		c2.263,8.065,3.285,17.588,7.813,24.829c2.229,3.563,3.596,9.438,3.967,13.575c0.075,3.555-0.677,7.172-2.205,10.916
		c-1.343,3.285-1.734,6.961-2.509,10.471c-0.646,2.947-1.174,5.831,3.011,6.7c2.43,0.503,2.139,2.87,2.832,4.571
		c2.711,6.628,5.424,7.204,10.223,1.771c6.691-7.579,7.313-16.524,4.438-25.723c-0.9-2.881-2.684-5.796-3.354-8.707
		c-1.021-4.397-1.564-16.98-1.525-22.722c0.068-10.301-5.695-17.357-10.669-25.45c0,0-3.286-5.345-4.671-8.16
		C143.688,96.74,133.527,73.008,130.609,70C128.882,68.221,125,66.64,121,65.83c-1-0.461-5.234,0.669-6.135,0.699
		c-1.913-0.027-3.021-0.607-4.158-1.796c-0.178-0.188-0.467-0.871-0.627-1.104C109.045,62.146,109.426,60.332,110.322,58.942"/>
</g>
<path id="hip" fill="#FAFAFA" stroke="#D9D9D9" stroke-linejoin="round" stroke-miterlimit="10" d="M123.373,179.136
	c-0.042-3.339-2.79-4.639-6.127-4.639H117H79.142c-2.739,0-4.855-1.303-6.296-1.176c-0.303,4.659-0.843,12.818-0.842,16.519
	c0,3.366,3.095,6.677,6.621,7.438l12.443,2.531c2.135,0.461,5.035,0.639,8.166,0.639c3.615,0,7.095-0.374,9.545-0.966l11.357-2.755
	c2.986-0.725,4.799-1.875,5.495-2.518l-0.351-0.89C123.48,185.348,123.377,179.415,123.373,179.136z"/>
<path id="left-arm" fill="#FAFAFA" stroke="#D9D9D9" stroke-linejoin="round" stroke-miterlimit="10" d="M164.469,174.573
	l-0.832-2.663c-0.302-0.632,0.342-0.104-0.302-0.632c-0.329-1.955-3.06-12.359-3.254-14.332c-0.007-0.13-0.003-0.249-0.015-0.382
	c-0.028-0.324-0.7-7.983-0.66-13.844c0.059-8.85-5.338-15.552-5.381-15.616c-0.159-0.235-8.539-13.941-8.539-13.941
	c-0.045-0.084-1.321-3.055-1.321-3.055c-1.644-3.336-3.697-7.813-5.906-12.549c-4.118-8.833-10.327-22.183-12.054-24.119
	l-0.955-0.992c-0.719-0.205-1.385-0.394-2.001-0.567c0.063,1.354,0.14,2.904,0.22,4.594l0.581,12.188
	c0.218,4.58,3.037,11.609,6.034,15.043c3.164,3.625,4.682,7.051,5.264,8.611c0.629,0.728,1.395,1.375,2.215,1.917
	c1.15,1.404,6,7.43,6.783,10.199c-0.023,0.015-0.055,0.029-0.076,0.047l0.307,1.085c0.679,2.42,1.252,5.003,1.807,7.501
	c1.318,5.938,2.684,12.082,5.545,16.665c2.653,4.248,2.854,5.474,2.928,5.935c0.176,1.088,0.476,2.039,0.828,2.864l-0.063,0.024
	c1.407,4.378,1.058,10.126,0.938,11.59c-0.391,0.581-0.677,1.292-0.748,2.079l-0.059,0.589l-0.227,0.548l-1.526,3.743
	c-0.808,1.969-1.229,4.245-1.681,6.652c-0.19,1.03-0.393,2.099-0.627,3.161c-0.094,0.431-0.281,1.295-0.336,1.866
	c0.072,0.021,0.156,0.04,0.254,0.06c4.291,0.892,5.141,4.568,5.5,6.142c0.07,0.304,0.158,0.683,0.224,0.836
	c0.601,1.465,1.067,2.27,1.371,2.697c0.422-0.304,1.119-0.897,2.147-2.063C166.049,190.565,167.232,183.408,164.469,174.573z"/>
<path id="right-arm" fill="#FAFAFA" stroke="#D9D9D9" stroke-linejoin="round" stroke-miterlimit="10" d="M61.237,94.838
	L60.61,82.438c-0.028-0.562-0.058-1.099-0.088-1.611l-0.538,1.239c-4.874,11.22-8.534,22.347-11.187,33.922
	c-0.016,0.057-0.038,0.104-0.052,0.166C47.902,119.689,44.299,128,44.299,128l0.002,0.008c-7.068,7.777-11.348,17.303-14.876,26.526
	c-0.002,0.006-0.006,0.011-0.008,0.021c-0.958,2.455-7.482,14.842-7.826,15.491c-1.623,2.388-3.38,4.601-5.308,6.678
	c-3.668,3.949-3.403,10.859,0.591,15.401c0.519,0.589,0.859,0.896,1.057,1.045c0.244-0.139-0.201-0.441,0.482-1.094
	c4.716-4.489,5.086-10.501,7.086-17.333c0-0.001,0-0.002,0-0.003c0-3.05,6-15.738,6-15.738v-0.008c0-0.342,1.536-0.705,1.752-1.113
	c0.223-0.421,0.761-0.43,3.652-4.005l3.087-3.482l0.153-0.024l0.086-0.023c3.091-3.697,7.779-9.91,10.409-13.85
	c1.691-2.533,2.4-4.761,3.251-6.264C55.659,127.266,56.5,119,56.5,119v-0.003c0-0.451,1.091-0.951,1.228-1.498l1.369-4.146
	C60.336,108.408,61.495,99.93,61.237,94.838z"/>
<path id="head" fill="#FAFAFA" stroke="#D9D9D9" stroke-linejoin="round" stroke-miterlimit="10" d="M109.426,24.243
	c-2.305-4.548-6.63-7.053-12.179-7.053c-1.589,0-3.261,0.207-4.965,0.614c-6.938,1.654-8.512,9.532-8.867,12.845
	c-0.685,6.389,1,10.117,1.107,10.345c1.854,3.532,3.295,6.214,4.064,7.61c0.037,0.013,0.085,0.027,0.125,0.043
	c0.817,1.229,1.763,2.383,3.458,4.549c2.501,3.198-0.677,13.107-6.346,16.856l-0.755,0.5l-0.32,0.211l-0.354,0.146
	c-1.257,0.521-3.272,1.165-4.689,1.496c-0.146,0.034-0.304,0.076-0.467,0.122c0.461,1.23,1.227,2.961,2.384,5.045l0.229,0.413
	c2.123,3.825,6.941,6.684,9.833,6.684c2.971,0,8.108-2.811,10.534-6.569l3.003-4.657c1.285-1.994,1.98-3.588,2.287-4.55
	l-0.691-0.727c-0.51-0.537-0.81-1.122-1.049-1.593c-0.021-0.04-0.039-0.08-0.059-0.116l-0.945-1.354L103.994,64l0,0
	c-0.212-0.309-0.288-0.702-0.271-1.146l0.006-0.017c-0.002-0.001-0.004-0.003-0.006-0.005c0.131-2.735,4.008-7.577,5.313-9.128
	c0.012-0.002,0.026-0.004,0.037-0.007l0.395-0.5C114.789,46.435,114.773,34.798,109.426,24.243z"/>
<path id="left-leg" fill="#FAFAFA" stroke="#D9D9D9" stroke-linejoin="round" stroke-miterlimit="10" d="M141.252,353.158
	l-3.162-4.107l-0.283-0.369c0,0-5.183-17.606-5.332-18.813c-0.018-0.146-1.824-15.287-3.016-27.413
	c-0.637-6.483,0.697-11.648,1.875-16.187c1.322-5.103,2.467-9.525,0.771-15.332l-1.131-3.852l-0.062-0.165l-0.038,0.12
	c-0.15-0.852-0.525-0.87-1.061-1.576l-1.332-15.968h-0.021c0.021,0,0.026-1.346,0.009-1.626c-0.039-0.541-0.93-13.888-0.887-25.995
	c0.023-7.225-0.27-13.21-0.271-13.268c-0.129-2.5-1.703-4.21-4.01-4.211c-0.416,0-0.851,0.008-1.289,0.113l-11.355,2.725
	c-3.551,0.855-6.66,4.712-6.66,8.257c0,4.955,1.26,13.207,2.757,18.082l4.388,12.052l0.073,0.247l0.056,0.547
	c0.125,0.518,0.319,1.028,0.564,1.531c0,0,3.077,13.996,3.666,17.953c0.037,0.197,0.898,4.849,1.313,11.909
	c0.195,3.313,0.209,6.068,0.222,8.51c0.028,6.1,0.05,10.154,2.853,17.265c3.893,9.883,5.812,21.975,7.663,32.389l0.021,1.521h0.104
	c0.021,0,0.038-0.009,0.06-0.009c0.031,2.364-0.281,4.45-0.281,4.45c-0.294,1.459-0.643,2.858-1.025,4.233
	c-0.484,1.729-0.922,3.366-1.121,4.947c-0.688,5.434,0.826,7.284,3.479,8.518c0.018,0.007,0.431,0.188,1.488,0.188
	c4.315,0,9.675-2.553,10.478-3.807C141.561,354.747,141.732,353.782,141.252,353.158z"/>
<path id="right-leg" fill="#FAFAFA" stroke="#D9D9D9" stroke-linejoin="round" stroke-miterlimit="10" d="M96.532,270.154
	C96.532,270.153,96.532,270.153,96.532,270.154c-0.933-7.325-3.869-19.328-3.888-19.404c-0.242-9.599-0.117-15.873,2.019-25.396
	l-1.162-9.682c0-3.656-1.866-7.598-5.417-8.475l-12.245-3.141l-3.866-0.701c1.047,16.892,3.3,33.334,6.466,48.991
	c0.009,0.048,0.073,0.089,0.083,0.137c1.211,6.323,0.587,13.333,0.455,14.59c-0.007,0.073-0.004,0.144-0.008,0.218
	c-0.007,0.128-0.871,12.703,1.001,23.661c1.769,10.354,1.532,21.991,1.532,32.313v0.912l0.179,8.389l0.096,0.796
	c-1.128,2.612-4.522,11.138-4.522,11.138c-3.145,5-7.963,9.632-14.705,13.499c-1.73,0.993-3.42,1.615-5.067,2.496
	c-2.205,1.183-4.292,2.237-6.396,3.517c0.729-0.012,1.452-0.043,2.173-0.043c0.594,0,1.19-0.017,1.786-0.015
	c0.588,0.002,1.177-0.003,1.765-0.003c3.673,0,7.566-0.063,11.231-0.774c4.531-0.887,9.42-1.702,14.463-1.702
	c0.709,0,1.419,0.018,2.111,0.049c0.173,0.009,0.343,0.017,0.509,0.017c1.51,0,2.208-0.324,2.366-0.506
	c0.092-0.104,0.238-0.521,0.126-1.432c-0.826-6.729-0.787-9.626-0.78-9.939c-0.079-2.58,1.854-20.453,1.854-20.453
	c0.039-0.241,3.943-24.529,7.934-40.979C98.316,281.234,97.271,273.832,96.532,270.154z"/>
<path id="abdomen" fill="#FAFAFA" stroke="#D9D9D9" stroke-linejoin="round" stroke-miterlimit="10" d="M119.718,153.389
	c-2.427-3.461-4.108-7.183-5.735-10.736c-1.203-2.628-2.355-5.125-3.758-7.455c-0.648-1.289-1.066-2.686-1.32-4.115H74.202
	l0.101,1.237c0.15,1.768,0.354,3.85,0.586,6.417c0.488,5.399-0.582,20.99-1.019,24.657c0.248,0.527,2.08,3.104,5.275,3.104h38.104
	c1.552,0,2.976-2.008,4.007-3.096c0.943-0.995,1.462-3.08,1.48-4.481C122.523,158.413,121.818,156.384,119.718,153.389z"/>
<path id="chest" fill="#FAFAFA" stroke="#D9D9D9" stroke-linejoin="round" stroke-miterlimit="10" d="M73.227,121.083h35.972
	c0.501-2.617,1.121-4.404,1.126-4.416c1.909-4.829,3.36-9.404,3.38-9.466c1.518-4.797,2.595-13.115,2.355-18.145l-0.58-12.205
	c-0.073-1.549-0.138-2.862-0.188-3.978c-1.116,1.813-2.396,3.87-3.366,5.438l-3.092,4.977c-3.617,5.823-11.148,10.384-17.148,10.384
	c-6.094,0-13.452-4.783-16.751-10.895l-0.422-0.781c-1.817-3.359-3.324-5.824-4.211-7.151c-0.712,0.065-1.493,0.178-2.054,0.276
	c0.091,1.817,0.217,4.329,0.355,7.081l0.633,12.629c0.284,5.648,1.815,17.285,2.464,19.484
	C72.273,116.26,72.836,118.802,73.227,121.083z"/>
<g id="heart">
	<path fill="#B20035" d="M94.02,109.757c-1.211,1.12-3.193,1.12-4.404,0l-4.661-4.311c-0.707-0.793-1.136-1.839-1.136-2.987
		c0-2.475,2-4.481,4.465-4.481c1.322,0,2.718,0.578,3.535,1.494c0.816-0.916,2.211-1.494,3.533-1.494
		c2.467,0,4.467,2.007,4.467,4.481c0,1.147-0.43,2.194-1.137,2.986L94.02,109.757z"/>
</g>
</svg>
