<?xml version="1.0" encoding="utf-8"?>
<!-- Generator: Adobe Illustrator 16.0.0, SVG Export Plug-In . SVG Version: 6.00 Build 0)  -->
<!DOCTYPE svg PUBLIC "-//W3C//DTD SVG 1.1//EN" "http://www.w3.org/Graphics/SVG/1.1/DTD/svg11.dtd">
<svg version="1.1" id="Layer_1" xmlns="http://www.w3.org/2000/svg" xmlns:xlink="http://www.w3.org/1999/xlink" x="0px" y="0px"
	 width="60px" height="60px" viewBox="0 0 60 60" enable-background="new 0 0 60 60" xml:space="preserve">
<g>
	<path fill="#C7D476" d="M30,60C13.458,60,0,46.541,0,29.999C0,13.458,13.458,0,30,0c16.541,0,30,13.458,30,29.999
		C60,46.541,46.541,60,30,60z M30,3.307c-14.72,0-26.693,11.973-26.693,26.692c0,14.719,11.974,26.692,26.693,26.692
		c14.717,0,26.691-11.975,26.691-26.692C56.691,15.281,44.718,3.307,30,3.307z"/>
	<ellipse fill="#C7D476" cx="21.938" cy="23.688" rx="2.394" ry="3.607"/>
	<path fill="#C7D476" d="M40.387,23.688c0,1.992-1.072,3.607-2.392,3.607c-1.322,0-2.396-1.615-2.396-3.607
		c0-1.995,1.072-3.61,2.396-3.61C39.313,20.078,40.387,21.693,40.387,23.688z"/>
	<path fill="#C7D476" d="M30.149,45.48c-8.625,0-11.911-6.196-12.046-6.461c-0.421-0.817-0.099-1.822,0.72-2.244
		c0.818-0.422,1.824-0.098,2.245,0.721c0.096,0.18,2.553,4.65,9.082,4.65c6.525,0,8.968-4.467,9.067-4.658
		c0.432-0.809,1.438-1.125,2.245-0.703c0.813,0.423,1.136,1.417,0.72,2.23C42.046,39.279,38.775,45.48,30.149,45.48z"/>
</g>
</svg>
