<?xml version="1.0" encoding="utf-8"?>
<!-- Generator: Adobe Illustrator 16.0.0, SVG Export Plug-In . SVG Version: 6.00 Build 0)  -->
<!DOCTYPE svg PUBLIC "-//W3C//DTD SVG 1.1//EN" "http://www.w3.org/Graphics/SVG/1.1/DTD/svg11.dtd">
<svg version="1.1" id="Layer_1" xmlns="http://www.w3.org/2000/svg" xmlns:xlink="http://www.w3.org/1999/xlink" x="0px" y="0px"
	 width="60px" height="60px" viewBox="0 0 60 60" enable-background="new 0 0 60 60" xml:space="preserve">
<g>
	<path fill="#CCCCCC" d="M30,60C13.458,60,0,46.541,0,29.999C0,13.458,13.458,0,30,0s30,13.458,30,29.999C60,46.541,46.543,60,30,60
		z M30,3.308c-14.719,0-26.693,11.973-26.693,26.691c0,14.719,11.974,26.693,26.693,26.693c14.719,0,26.694-11.975,26.694-26.693
		C56.694,15.281,44.72,3.308,30,3.308z"/>
	<ellipse fill="#CCCCCC" cx="22.078" cy="23.688" rx="2.395" ry="3.607"/>
	<ellipse fill="#CCCCCC" cx="38.133" cy="23.688" rx="2.393" ry="3.607"/>
	<path fill="#CCCCCC" d="M43.336,45.513c-0.532,0-1.056-0.255-1.378-0.728c-2.688-3.941-6.719-5.938-11.982-5.938
		c-5.234,0-9.251,1.977-11.936,5.875c-0.521,0.758-1.558,0.949-2.317,0.428c-0.759-0.522-0.95-1.56-0.429-2.319
		c3.298-4.787,8.375-7.317,14.682-7.317c6.342,0,11.437,2.558,14.736,7.395c0.517,0.76,0.321,1.797-0.438,2.315
		C43.985,45.419,43.658,45.513,43.336,45.513z"/>
</g>
</svg>
