<?xml version="1.0" encoding="utf-8"?>
<!-- Generator: Adobe Illustrator 16.0.0, SVG Export Plug-In . SVG Version: 6.00 Build 0)  -->
<!DOCTYPE svg PUBLIC "-//W3C//DTD SVG 1.1//EN" "http://www.w3.org/Graphics/SVG/1.1/DTD/svg11.dtd">
<svg version="1.1" id="Layer_1" xmlns="http://www.w3.org/2000/svg" xmlns:xlink="http://www.w3.org/1999/xlink" x="0px" y="0px"
	 width="60px" height="60px" viewBox="0 0 60 60" enable-background="new 0 0 60 60" xml:space="preserve">
<g>
	<path fill="#CCCCCC" d="M29.999,60C13.458,60,0,46.541,0,29.999C0,13.458,13.458,0,29.999,0C46.54,0,60,13.458,60,29.999
		C60,46.541,46.54,60,29.999,60z M29.999,3.308c-14.717,0-26.692,11.973-26.692,26.691c0,14.719,11.975,26.693,26.692,26.693
		c14.719,0,26.692-11.975,26.692-26.693C56.691,15.281,44.718,3.308,29.999,3.308z"/>
	<ellipse fill="#CCCCCC" cx="22.076" cy="23.688" rx="2.394" ry="3.607"/>
	<path fill="#CCCCCC" d="M40.525,23.688c0,1.992-1.073,3.607-2.393,3.607c-1.322,0-2.396-1.615-2.396-3.607
		c0-1.995,1.073-3.61,2.396-3.61C39.452,20.078,40.525,21.693,40.525,23.688z"/>
	<path fill="#CCCCCC" d="M42.777,35.775c0,7.542-5.721,13.656-12.778,13.656c-7.056,0-12.776-6.114-12.776-13.656H42.777
		 M42.777,32.44H17.223c-1.841,0-3.334,1.492-3.334,3.335c0,9.369,7.228,16.991,16.111,16.991c8.885,0,16.111-7.622,16.111-16.991
		C46.11,33.933,44.618,32.44,42.777,32.44L42.777,32.44z"/>
</g>
</svg>
