<?xml version="1.0" encoding="utf-8"?>
<!-- Generator: Adobe Illustrator 16.0.0, SVG Export Plug-In . SVG Version: 6.00 Build 0)  -->
<!DOCTYPE svg PUBLIC "-//W3C//DTD SVG 1.1//EN" "http://www.w3.org/Graphics/SVG/1.1/DTD/svg11.dtd">
<svg version="1.1" id="Layer_1" xmlns="http://www.w3.org/2000/svg" xmlns:xlink="http://www.w3.org/1999/xlink" x="0px" y="0px"
	 width="537.037px" height="60.977px" viewBox="0 0 537.037 60.977" enable-background="new 0 0 537.037 60.977"
	 xml:space="preserve">
<g>
	<path fill="#CCCCCC" d="M268.518,60.977c-16.811,0-30.487-13.678-30.487-30.489C238.031,13.677,251.707,0,268.518,0
		s30.489,13.677,30.489,30.488C299.007,47.299,285.329,60.977,268.518,60.977z M268.518,3.361
		c-14.958,0-27.126,12.168-27.126,27.126s12.168,27.128,27.126,27.128c14.959,0,27.127-12.17,27.127-27.128
		S283.478,3.361,268.518,3.361z"/>
	<ellipse fill="#CCCCCC" cx="260.184" cy="24.073" rx="2.433" ry="3.667"/>
	<ellipse fill="#CCCCCC" cx="276.501" cy="24.073" rx="2.432" ry="3.667"/>
	<path fill="#CCCCCC" d="M274.663,45.829H263.14c-0.929,0-1.681-0.752-1.681-1.68c0-0.929,0.752-1.681,1.681-1.681h11.523
		c0.929,0,1.681,0.752,1.681,1.681C276.344,45.077,275.592,45.829,274.663,45.829z"/>
</g>
<g>
	<path fill="#CCCCCC" d="M387.534,60.977c-16.812,0-30.488-13.678-30.488-30.489C357.046,13.677,370.723,0,387.534,0
		c16.811,0,30.488,13.677,30.488,30.488C418.022,47.299,404.345,60.977,387.534,60.977z M387.534,3.361
		c-14.959,0-27.127,12.168-27.127,27.126s12.168,27.128,27.127,27.128c14.957,0,27.127-12.17,27.127-27.128
		S402.491,3.361,387.534,3.361z"/>
	<ellipse fill="#CCCCCC" cx="379.34" cy="24.073" rx="2.433" ry="3.667"/>
	<path fill="#CCCCCC" d="M398.089,24.073c0,2.025-1.09,3.667-2.43,3.667c-1.345,0-2.434-1.642-2.434-3.667
		c0-2.027,1.089-3.668,2.434-3.668C396.999,20.405,398.089,22.046,398.089,24.073z"/>
	<path fill="#CCCCCC" d="M387.686,46.221c-8.765,0-12.104-6.297-12.242-6.565c-0.428-0.831-0.101-1.853,0.731-2.281
		c0.831-0.428,1.854-0.1,2.281,0.731c0.098,0.184,2.595,4.727,9.229,4.727c6.631,0,9.114-4.539,9.216-4.733
		c0.437-0.823,1.458-1.144,2.281-0.715c0.827,0.43,1.153,1.44,0.729,2.268C399.775,39.92,396.452,46.221,387.686,46.221z"/>
</g>
<g>
	<path fill="#CCCCCC" d="M506.548,60.977c-16.811,0-30.487-13.678-30.487-30.489C476.061,13.677,489.737,0,506.548,0
		s30.489,13.677,30.489,30.488C537.037,47.299,523.358,60.977,506.548,60.977z M506.548,3.361
		c-14.957,0-27.127,12.168-27.127,27.126s12.17,27.128,27.127,27.128c14.958,0,27.127-12.17,27.127-27.128
		S521.506,3.361,506.548,3.361z"/>
	<ellipse fill="#CCCCCC" cx="498.496" cy="24.073" rx="2.433" ry="3.667"/>
	<ellipse fill="#CCCCCC" cx="514.813" cy="24.073" rx="2.433" ry="3.667"/>
	<path fill="#CCCCCC" d="M519.534,36.358c0,7.665-5.813,13.879-12.986,13.879c-7.171,0-12.984-6.214-12.984-13.879H519.534
		 M519.534,32.969h-25.971c-1.871,0-3.389,1.517-3.389,3.389c0,9.521,7.346,17.268,16.373,17.268
		c9.029,0,16.374-7.746,16.374-17.268C522.922,34.486,521.405,32.969,519.534,32.969L519.534,32.969z"/>
</g>
<g>
	<path fill="#CCCCCC" d="M149.503,60.977c-16.811,0-30.488-13.678-30.488-30.489C119.015,13.677,132.692,0,149.503,0
		s30.488,13.677,30.488,30.488C179.991,47.299,166.314,60.977,149.503,60.977z M149.503,3.361
		c-14.958,0-27.127,12.168-27.127,27.126s12.169,27.128,27.127,27.128c14.958,0,27.127-12.17,27.127-27.128
		S164.462,3.361,149.503,3.361z"/>
	<ellipse fill="#CCCCCC" cx="141.451" cy="24.073" rx="2.433" ry="3.667"/>
	<path fill="#CCCCCC" d="M160.2,24.073c0,2.025-1.09,3.667-2.431,3.667c-1.345,0-2.434-1.642-2.434-3.667
		c0-2.027,1.089-3.668,2.434-3.668C159.11,20.405,160.2,22.046,160.2,24.073z"/>
	<path fill="#CCCCCC" d="M143.161,47.039c-0.71,0-1.372-0.45-1.607-1.163c-0.293-0.889,0.189-1.847,1.078-2.139l13.691-4.517
		c0.882-0.294,1.845,0.188,2.138,1.077s-0.188,1.846-1.077,2.139l-13.69,4.517C143.517,47.012,143.338,47.039,143.161,47.039z"/>
</g>
<g>
	<path fill="#CCCCCC" d="M30.488,60.977C13.677,60.977,0,47.299,0,30.488C0,13.677,13.677,0,30.488,0s30.487,13.677,30.487,30.488
		C60.976,47.299,47.3,60.977,30.488,60.977z M30.488,3.361c-14.958,0-27.127,12.168-27.127,27.126s12.169,27.128,27.127,27.128
		s27.127-12.17,27.127-27.128S45.446,3.361,30.488,3.361z"/>
	<ellipse fill="#CCCCCC" cx="22.436" cy="24.073" rx="2.433" ry="3.667"/>
	<path fill="#CCCCCC" d="M41.185,24.073c0,2.025-1.09,3.667-2.43,3.667c-1.346,0-2.434-1.642-2.434-3.667
		c0-2.027,1.088-3.668,2.434-3.668C40.095,20.405,41.185,22.046,41.185,24.073z"/>
	<path fill="#CCCCCC" d="M44.04,46.254c-0.541,0-1.073-0.26-1.401-0.74c-2.731-4.005-6.828-6.035-12.176-6.035
		c-5.32,0-9.401,2.009-12.13,5.971c-0.53,0.771-1.583,0.965-2.356,0.435c-0.771-0.53-0.965-1.585-0.435-2.356
		c3.351-4.865,8.51-7.437,14.92-7.437c6.444,0,11.623,2.599,14.975,7.515c0.527,0.772,0.327,1.826-0.445,2.354
		C44.7,46.159,44.369,46.254,44.04,46.254z"/>
</g>
</svg>
